<svg xmlns="http://www.w3.org/2000/svg" xmlns:xlink="http://www.w3.org/1999/xlink" xmlns:inkscape="http://www.inkscape.org/namespaces/inkscape" version="1.1" width="226.057" height="135.773" viewBox="0 0 226.057 135.773">
<path transform="matrix(1,0,0,-1,70.323,20.433999)" stroke-width="1.19553" stroke-linecap="butt" stroke-miterlimit="10" stroke-linejoin="miter" fill="none" stroke="#ff0000" d="M0 0-51.03032-51.03032"/>
<text fill="#ff0000" xml:space="preserve" transform="matrix(1 0 -0 1 -.0000038146974 135.773)" font-size="9.9626" font-family="CMMI10" font-style="italic"><tspan y="-95.237" x="33.448">l</tspan></text>
<text fill="#ff0000" xml:space="preserve" transform="matrix(1 0 -0 1 -.0000038146974 135.773)" font-size="6.9738" font-family="CMR7"><tspan y="-93.742" x="36.421">1</tspan></text>
<path transform="matrix(1,0,0,-1,70.323,20.433999)" stroke-width="1.19553" stroke-linecap="butt" stroke-miterlimit="10" stroke-linejoin="miter" fill="none" stroke="#0000b3" d="M-51.03032-51.03032 42.52539-93.55574"/>
<text fill="#0000b3" xml:space="preserve" transform="matrix(1 0 -0 1 0 135.773)" font-size="9.9626" font-family="CMMI10" font-style="italic"><tspan y="-32.21" x="54.711">l</tspan></text>
<text fill="#0000b3" xml:space="preserve" transform="matrix(1 0 -0 1 0 135.773)" font-size="6.9738" font-family="CMR7"><tspan y="-30.716" x="57.683">2</tspan></text>
<path transform="matrix(1,0,0,-1,70.323,20.433999)" stroke-width="1.19553" stroke-linecap="butt" stroke-miterlimit="10" stroke-linejoin="miter" fill="none" stroke="#0000b3" d="M42.52539-93.55574 136.08115-51.03032"/>
<text fill="#0000b3" xml:space="preserve" transform="matrix(1 0 -0 1 0 135.773)" font-size="9.9626" font-family="CMMI10" font-style="italic"><tspan y="-32.21" x="163.544">l</tspan></text>
<text fill="#0000b3" xml:space="preserve" transform="matrix(1 0 -0 1 0 135.773)" font-size="6.9738" font-family="CMR7"><tspan y="-30.716" x="166.516">3</tspan></text>
<path transform="matrix(1,0,0,-1,70.323,20.433999)" stroke-width="1.19553" stroke-linecap="butt" stroke-miterlimit="10" stroke-linejoin="miter" fill="none" stroke="#ff0000" d="M85.0508 0 136.08115-51.03032"/>
<text fill="#ff0000" xml:space="preserve" transform="matrix(1 0 -0 1 0 135.773)" font-size="9.9626" font-family="CMMI10" font-style="italic"><tspan y="-95.237" x="184.806">l</tspan></text>
<text fill="#ff0000" xml:space="preserve" transform="matrix(1 0 -0 1 0 135.773)" font-size="6.9738" font-family="CMR7"><tspan y="-93.742" x="187.779">4</tspan></text>
<path transform="matrix(1,0,0,-1,70.323,20.433999)" stroke-width=".79701" stroke-linecap="butt" stroke-miterlimit="10" stroke-linejoin="miter" fill="none" stroke="#000000" d="M0 0H85.0508"/>
<text xml:space="preserve" transform="matrix(1 0 -0 1 0 135.773)" font-size="9.9626" font-family="CMMI10" font-style="italic"><tspan y="-120.552" x="109.127">l</tspan></text>
<text xml:space="preserve" transform="matrix(1 0 -0 1 0 135.773)" font-size="6.9738" font-family="CMR7"><tspan y="-119.058" x="112.1">0</tspan></text>
<path transform="matrix(1,0,0,-1,70.323,20.433999)" d="M2.11343 0C2.11343 1.16722 1.16722 2.11343 0 2.11343-1.16722 2.11343-2.11343 1.16722-2.11343 0-2.11343-1.16722-1.16722-2.11343 0-2.11343 1.16722-2.11343 2.11343-1.16722 2.11343 0ZM0 0" fill="#fffac2"/>
<path transform="matrix(1,0,0,-1,70.323,20.433999)" stroke-width=".79701" stroke-linecap="butt" stroke-miterlimit="10" stroke-linejoin="miter" fill="none" stroke="#b35900" d="M2.11343 0C2.11343 1.16722 1.16722 2.11343 0 2.11343-1.16722 2.11343-2.11343 1.16722-2.11343 0-2.11343-1.16722-1.16722-2.11343 0-2.11343 1.16722-2.11343 2.11343-1.16722 2.11343 0ZM0 0"/>
<path transform="matrix(1,0,0,-1,70.323,20.433999)" d="M-48.91687-51.03032C-48.91687-49.86308-49.86308-48.91687-51.03032-48.91687-52.19754-48.91687-53.14375-49.86308-53.14375-51.03032-53.14375-52.19754-52.19754-53.14375-51.03032-53.14375-49.86308-53.14375-48.91687-52.19754-48.91687-51.03032ZM-51.03032-51.03032" fill="#fffac2"/>
<path transform="matrix(1,0,0,-1,70.323,20.433999)" stroke-width=".79701" stroke-linecap="butt" stroke-miterlimit="10" stroke-linejoin="miter" fill="none" stroke="#b35900" d="M-48.91687-51.03032C-48.91687-49.86308-49.86308-48.91687-51.03032-48.91687-52.19754-48.91687-53.14375-49.86308-53.14375-51.03032-53.14375-52.19754-52.19754-53.14375-51.03032-53.14375-49.86308-53.14375-48.91687-52.19754-48.91687-51.03032ZM-51.03032-51.03032"/>
<path transform="matrix(1,0,0,-1,70.323,20.433999)" d="M44.63882-93.55574C44.63882-92.3885 43.69261-91.44229 42.52539-91.44229 41.35815-91.44229 40.41194-92.3885 40.41194-93.55574 40.41194-94.72296 41.35815-95.66917 42.52539-95.66917 43.69261-95.66917 44.63882-94.72296 44.63882-93.55574ZM42.52539-93.55574" fill="#fffac2"/>
<path transform="matrix(1,0,0,-1,70.323,20.433999)" stroke-width=".79701" stroke-linecap="butt" stroke-miterlimit="10" stroke-linejoin="miter" fill="none" stroke="#b35900" d="M44.63882-93.55574C44.63882-92.3885 43.69261-91.44229 42.52539-91.44229 41.35815-91.44229 40.41194-92.3885 40.41194-93.55574 40.41194-94.72296 41.35815-95.66917 42.52539-95.66917 43.69261-95.66917 44.63882-94.72296 44.63882-93.55574ZM42.52539-93.55574"/>
<path transform="matrix(1,0,0,-1,70.323,20.433999)" d="M138.19458-51.03032C138.19458-49.86308 137.24837-48.91687 136.08115-48.91687 134.91391-48.91687 133.9677-49.86308 133.9677-51.03032 133.9677-52.19754 134.91391-53.14375 136.08115-53.14375 137.24837-53.14375 138.19458-52.19754 138.19458-51.03032ZM136.08115-51.03032" fill="#fffac2"/>
<path transform="matrix(1,0,0,-1,70.323,20.433999)" stroke-width=".79701" stroke-linecap="butt" stroke-miterlimit="10" stroke-linejoin="miter" fill="none" stroke="#b35900" d="M138.19458-51.03032C138.19458-49.86308 137.24837-48.91687 136.08115-48.91687 134.91391-48.91687 133.9677-49.86308 133.9677-51.03032 133.9677-52.19754 134.91391-53.14375 136.08115-53.14375 137.24837-53.14375 138.19458-52.19754 138.19458-51.03032ZM136.08115-51.03032"/>
<path transform="matrix(1,0,0,-1,70.323,20.433999)" d="M87.16423 0C87.16423 1.16722 86.21802 2.11343 85.0508 2.11343 83.88356 2.11343 82.93735 1.16722 82.93735 0 82.93735-1.16722 83.88356-2.11343 85.0508-2.11343 86.21802-2.11343 87.16423-1.16722 87.16423 0ZM85.0508 0" fill="#fffac2"/>
<path transform="matrix(1,0,0,-1,70.323,20.433999)" stroke-width=".79701" stroke-linecap="butt" stroke-miterlimit="10" stroke-linejoin="miter" fill="none" stroke="#b35900" d="M87.16423 0C87.16423 1.16722 86.21802 2.11343 85.0508 2.11343 83.88356 2.11343 82.93735 1.16722 82.93735 0 82.93735-1.16722 83.88356-2.11343 85.0508-2.11343 86.21802-2.11343 87.16423-1.16722 87.16423 0ZM85.0508 0"/>
<text xml:space="preserve" transform="matrix(1 0 -0 1 0 135.773)" font-size="9.9626" font-family="CMMI10" font-style="italic"><tspan y="-118.859" x="58.927">O</tspan></text>
<text xml:space="preserve" transform="matrix(1 0 -0 1 -.0000019073487 135.773)" font-size="9.9626" font-family="CMMI10" font-style="italic"><tspan y="-60.905" x="8.302">A</tspan></text>
<text xml:space="preserve" transform="matrix(1 0 -0 1 0 135.773)" font-size="9.9626" font-family="CMMI10" font-style="italic"><tspan y="-10.793" x="97.264">B</tspan></text>
<text xml:space="preserve" transform="matrix(1 0 -0 1 0 135.773)" font-size="9.9626" font-family="CMR10"><tspan y="-10.793" x="105.32">(</tspan></text>
<text xml:space="preserve" transform="matrix(1 0 -0 1 0 135.773)" font-size="9.9626" font-family="CMMI10" font-style="italic"><tspan y="-10.793" x="109.195 114.89361 119.326969">x,y</tspan></text>
<text xml:space="preserve" transform="matrix(1 0 -0 1 0 135.773)" font-size="9.9626" font-family="CMR10"><tspan y="-10.793" x="124.558">)</tspan></text>
<text xml:space="preserve" transform="matrix(1 0 -0 1 0 135.773)" font-size="9.9626" font-family="CMMI10" font-style="italic"><tspan y="-60.905" x="209.922">C</tspan></text>
<text xml:space="preserve" transform="matrix(1 0 -0 1 0 135.773)" font-size="9.9626" font-family="CMMI10" font-style="italic"><tspan y="-118.859" x="158.893">D</tspan></text>
<path transform="matrix(1,0,0,-1,70.323,20.433999)" stroke-width=".3985" stroke-linecap="butt" stroke-miterlimit="10" stroke-linejoin="miter" fill="none" stroke="#000000" d="M85.0508 0H127.11273"/>
<path transform="matrix(1,0,0,-1,197.43573,20.433999)" stroke-width=".31879" stroke-linecap="round" stroke-linejoin="round" fill="none" stroke="#000000" d="M-1.19551 1.59401C-1.09587 .99626 0 .09961 .29886 0 0-.09961-1.09587-.99626-1.19551-1.59401"/>
<text xml:space="preserve" transform="matrix(1 0 -0 1 0 135.773)" font-size="9.9626" font-family="CMMI10" font-style="italic"><tspan y="-113.194" x="201.412">x</tspan></text>
<path transform="matrix(1,0,0,-1,70.323,20.433999)" stroke-width=".3985" stroke-linecap="butt" stroke-miterlimit="10" stroke-linejoin="miter" fill="none" stroke="#000000" d="M0 0V-42.06192"/>
<path transform="matrix(0,1,1,0,70.323,62.49592)" stroke-width=".31879" stroke-linecap="round" stroke-linejoin="round" fill="none" stroke="#000000" d="M-1.19551 1.59401C-1.09587 .99626 0 .09961 .29886 0 0-.09961-1.09587-.99626-1.19551-1.59401"/>
<text xml:space="preserve" transform="matrix(1 0 -0 1 -.0000076293949 135.77301)" font-size="9.9626" font-family="CMMI10" font-style="italic"><tspan y="-65.01" x="67.702">y</tspan></text>
<path transform="matrix(1,0,0,-1,70.323,20.433999)" stroke-width=".3985" stroke-linecap="butt" stroke-dasharray="2.98883,2.98883" stroke-miterlimit="10" stroke-linejoin="miter" fill="none" stroke="#000000" d="M136.08115-51.03032H102.06487"/>
<path transform="matrix(1,0,0,-1,70.323,20.433999)" stroke-width=".3985" stroke-linecap="butt" stroke-dasharray="2.98883,2.98883" stroke-miterlimit="10" stroke-linejoin="miter" fill="none" stroke="#000000" d="M-51.03032-51.03032H-17.01404"/>
<path transform="matrix(1,0,0,-1,70.323,20.433999)" stroke-width=".3985" stroke-linecap="butt" stroke-miterlimit="10" stroke-linejoin="miter" fill="none" stroke="#000000" d="M-10.0221-10.0221C-4.48698-15.5572 4.48698-15.5572 10.0221-10.0221 12.67961-7.36458 14.17339-3.7583 14.17339-.45827"/>
<path transform="matrix(0,-1,-1,-0,84.49639,20.892268)" stroke-width=".31879" stroke-linecap="round" stroke-linejoin="round" fill="none" stroke="#000000" d="M-1.19551 1.59401C-1.09587 .99626 0 .09961 .29886 0 0-.09961-1.09587-.99626-1.19551-1.59401"/>
<text xml:space="preserve" transform="matrix(1 0 -0 1 -.0000076293949 135.773)" font-size="9.9626" font-family="CMMI10" font-style="italic"><tspan y="-94.296" x="73.343">&#x03b8;</tspan></text>
<text xml:space="preserve" transform="matrix(1 0 -0 1 -.0000076293949 135.773)" font-size="6.9738" font-family="CMR7"><tspan y="-92.800998" x="78.020008">1</tspan></text>
<path transform="matrix(1,0,0,-1,70.323,20.433999)" stroke-width=".3985" stroke-linecap="butt" stroke-miterlimit="10" stroke-linejoin="miter" fill="none" stroke="#000000" d="M95.06253-10.0221C97.72005-7.36458 99.21382-3.7583 99.21382-.45827"/>
<path transform="matrix(0,-1,-1,-0,169.53682,20.892268)" stroke-width=".31879" stroke-linecap="round" stroke-linejoin="round" fill="none" stroke="#000000" d="M-1.19551 1.59401C-1.09587 .99626 0 .09961 .29886 0 0-.09961-1.09587-.99626-1.19551-1.59401"/>
<text xml:space="preserve" transform="matrix(1 0 -0 1 -.000015258789 135.773)" font-size="9.9626" font-family="CMMI10" font-style="italic"><tspan y="-103.949" x="171.74">&#x03b8;</tspan></text>
<text xml:space="preserve" transform="matrix(1 0 -0 1 -.000015258789 135.773)" font-size="6.9738" font-family="CMR7"><tspan y="-102.454998" x="176.417">2</tspan></text>
<path transform="matrix(1,0,0,-1,70.323,20.433999)" stroke-width=".3985" stroke-linecap="butt" stroke-miterlimit="10" stroke-linejoin="miter" fill="none" stroke="#000000" d="M-38.12195-56.88867C-37.28517-55.04774-36.85071-53.04643-36.85071-51.48239"/>
<path transform="matrix(0,-1,-1,-0,33.472288,71.91639)" stroke-width=".31879" stroke-linecap="round" stroke-linejoin="round" fill="none" stroke="#000000" d="M-1.19551 1.59401C-1.09587 .99626 0 .09961 .29886 0 0-.09961-1.09587-.99626-1.19551-1.59401"/>
<text xml:space="preserve" transform="matrix(1 0 -0 1 -.0000038146974 135.773)" font-size="9.9626" font-family="CMMI10" font-style="italic"><tspan y="-57.517" x="38.811">&#x03b1;</tspan></text>
<text xml:space="preserve" transform="matrix(1 0 -0 1 -.0000038146974 135.773)" font-size="6.9738" font-family="CMR7"><tspan y="-56.023" x="45.184003">1</tspan></text>
<path transform="matrix(1,0,0,-1,70.323,20.433999)" stroke-width=".3985" stroke-linecap="butt" stroke-miterlimit="10" stroke-linejoin="miter" fill="none" stroke="#000000" d="M121.89114-51.02411C121.89114-53.04643 122.3256-55.04774 122.97278-56.47148"/>
<path transform="matrix(.41374,.91034,.91034,-.41374,193.29578,76.90548)" stroke-width=".31879" stroke-linecap="round" stroke-linejoin="round" fill="none" stroke="#000000" d="M-1.19551 1.59401C-1.09587 .99626 0 .09961 .29886 0 0-.09961-1.09587-.99626-1.19551-1.59401"/>
<text xml:space="preserve" transform="matrix(1 0 -0 1 0 135.773)" font-size="9.9626" font-family="CMMI10" font-style="italic"><tspan y="-57.217" x="174.647">&#x03b1;</tspan></text>
<text xml:space="preserve" transform="matrix(1 0 -0 1 0 135.773)" font-size="6.9738" font-family="CMR7"><tspan y="-55.723" x="181.02">2</tspan></text>
</svg>
